<svg width="24" height="24" viewBox="0 0 24 24" fill="none" xmlns="http://www.w3.org/2000/svg">
<path fill-rule="evenodd" clip-rule="evenodd" d="M7 3C5.89543 3 5 3.89543 5 5V7.5C5 7.77614 5.22386 8 5.5 8H6.5C6.77614 8 7 7.77614 7 7.5V6C7 5.44772 7.44772 5 8 5H18C18.5523 5 19 5.44772 19 6V18C19 18.5523 18.5523 19 18 19H8C7.44771 19 7 18.5523 7 18V16.5C7 16.2239 6.77614 16 6.5 16H5.5C5.22386 16 5 16.2239 5 16.5V19C5 20.1046 5.89543 21 7 21H19C20.1046 21 21 20.1046 21 19V5C21 3.89543 20.1046 3 19 3H7ZM15.7678 11.6464C15.963 11.8417 15.963 12.1583 15.7678 12.3536L11.7678 16.3536C11.5725 16.5488 11.2559 16.5488 11.0607 16.3536L10.3536 15.6464C10.1583 15.4512 10.1583 15.1346 10.3536 14.9393L12.3 12.9929H2.5C2.22386 12.9929 2 12.769 2 12.4929V11.4929C2 11.2168 2.22386 10.9929 2.5 10.9929H12.2858L10.3536 9.06066C10.1583 8.8654 10.1583 8.54882 10.3536 8.35355L11.0607 7.64645C11.2559 7.45118 11.5725 7.45118 11.7678 7.64645L15.7678 11.6464Z" fill="#222222"/>
</svg>
