<svg width="13" height="16" viewBox="0 0 13 16" fill="none" xmlns="http://www.w3.org/2000/svg">
<path d="M6.4009 8.8C4.34376 8.8 2.8009 6.60629 2.8009 4.05C2.8009 1.49371 4.12864 0 6.4009 0C8.67316 0 10.0009 1.49371 10.0009 4.05C10.0009 6.60629 8.45804 8.8 6.4009 8.8ZM6.4009 16C2.90199 16 0.808457 15.5315 0.120294 14.5946C0.0400456 14.4854 -0.000805568 14.3521 0.00433862 14.2167C0.100964 11.6722 2.23315 10.4 6.4009 10.4C10.5687 10.4 12.7009 11.6723 12.7975 14.2168C12.8026 14.3523 12.7617 14.4855 12.6814 14.5948C11.9931 15.5316 9.89962 16 6.4009 16Z" fill="black"/>
</svg>
